<!DOCTYPE svg PUBLIC "-//W3C//DTD SVG 1.1//EN" "http://www.w3.org/Graphics/SVG/1.1/DTD/svg11.dtd">
<!-- Uploaded to: SVG Repo, www.svgrepo.com, Transformed by: SVG Repo Mixer Tools -->
<svg height="800px" width="800px" version="1.1" id="Capa_1" xmlns="http://www.w3.org/2000/svg" xmlns:xlink="http://www.w3.org/1999/xlink" viewBox="0 0 52.526 52.526" xml:space="preserve" fill="#c3ac0f">
<g id="SVGRepo_bgCarrier" stroke-width="0"/>
<g id="SVGRepo_tracerCarrier" stroke-linecap="round" stroke-linejoin="round"/>
<g id="SVGRepo_iconCarrier"> <g> <path style="fill:#c3ac0f;" d="M38.684,12.468c-5.041,0-9.447,2.717-11.867,6.753c-2.908-4.162-8.129-6.847-12.975-6.847 C6.209,12.374,0,18.583,0,26.216c0,7.633,6.209,13.842,13.842,13.842c4.813,0,9.992-2.648,12.912-6.762 c2.406,4.094,6.846,6.856,11.93,6.856c7.633,0,13.842-6.21,13.842-13.843S46.317,12.468,38.684,12.468z M13.842,35.792 c-5.279,0-9.576-4.296-9.576-9.575c0-5.281,4.297-9.576,9.576-9.576c5.086,0,10.998,4.183,10.998,9.576 C24.84,31.609,18.928,35.792,13.842,35.792z M38.684,35.887c-5.281,0-9.576-4.296-9.576-9.576s4.295-9.576,9.576-9.576 c5.279,0,9.576,4.296,9.576,9.576S43.963,35.887,38.684,35.887z"/> </g> </g>
</svg>