<svg xmlns="http://www.w3.org/2000/svg"  viewBox="0 0 50 50" width="50px" height="50px"><path d="M 15.035156 9.636719 C 15.035156 10.273438 15.066406 13 15.066406 13 L 19.566406 13 C 19.566406 13 20.097656 13 20.097656 12.363281 C 20.097656 11.726563 20.066406 9 20.066406 9 L 15.566406 9 C 15.566406 9 15.035156 9 15.035156 9.636719 Z M 15.035156 15.636719 C 15.035156 16.273438 15.066406 32 15.066406 32 L 19.566406 32 C 19.566406 32 20.097656 32 20.097656 31.363281 C 20.097656 31.257813 20.066406 15 20.066406 15 L 15.566406 15 C 15.339844 15.0625 15.035156 15 15.035156 15.636719 Z M 9.566406 9 C 9.566406 9 9.035156 9 9.035156 9.636719 L 9.066406 15 L 1.066406 15 C 1.066406 15 0.0664063 15.195313 0.0664063 15.835938 L 0 32 L 13.066406 32 C 13.066406 32 14.035156 32.03125 14.066406 31 C 14.085938 30.363281 14.066406 9 14.066406 9 Z M 9.066406 28.5 C 9.066406 29.136719 8.566406 29 8.566406 29 L 5.066406 29 L 5.066406 18.5 C 5.066406 17.863281 5.609375 17.957031 5.609375 17.957031 L 9.066406 18 Z M 37.066406 15 C 36.613281 14.890625 36.085938 15.191406 36.066406 16 L 36.078125 32 L 45.066406 32 L 45.066406 34 L 37.066406 34 C 37.066406 34 36.066406 33.925781 36.066406 35 C 36.066406 35.636719 36.136719 38 36.136719 38 L 49.566406 38 C 49.566406 38 50.066406 38.136719 50.066406 37.5 C 50.066406 36.863281 50.066406 15 50.066406 15 Z M 45.066406 28.5 C 45.066406 29.136719 44.566406 29 44.566406 29 L 41.066406 29 L 41.066406 18.5 C 41.066406 17.863281 41.566406 18 41.566406 18 L 45.066406 18 Z M 21.566406 15 C 21.566406 15 21.035156 15 21.035156 15.636719 L 21.066406 32 L 30.066406 32 L 30.066406 34 L 21.566406 34 C 21.566406 34 21.066406 33.863281 21.066406 34.5 C 21.066406 35.136719 21.066406 38 21.066406 38 L 34.542969 38 C 34.542969 38 35.074219 38 35.074219 37.363281 C 35.074219 36.726563 35.066406 15 35.066406 15 Z M 30.066406 28.5 C 30.066406 29.136719 29.566406 29 29.566406 29 L 26.066406 29 L 26.066406 18.5 C 26.066406 17.863281 26.566406 18 26.566406 18 L 30.066406 18 Z"/></svg>